<?xml version="1.0" encoding="UTF-8"?>
<svg xmlns="http://www.w3.org/2000/svg" version="1.1" viewBox="0 0 128 128">
  <defs>
    <style>
      .cls-1 {
        fill: #1b1bdb;
      }

      .cls-2 {
        fill: red;
      }

      .cls-3 {
        fill: #3939ff;
      }
    </style>
  </defs>
  <!-- Generator: Adobe Illustrator 28.6.0, SVG Export Plug-In . SVG Version: 1.2.0 Build 709)  -->
  <g>
    <g id="Lager_1">
      <rect width="128" height="128"/>
      <polyline class="cls-1" points="23.44 63.67 106.5 63.67 84.13 117.98 46.09 117.98 23.44 63.67"/>
      <path class="cls-3" d="M97.01,63.61l-32.04,22.69-3.45-2.44c.83-.23,1.57-.54,2.17-.97l-24.28-16.95c-.54.41-.96.88-1.21,1.4l-5.37-3.8h.19c.06-27.42,14.34-49.64,31.95-49.64s31.91,22.24,31.95,49.71h.1Z"/>
      <polyline class="cls-3" points="91.76 99.19 94.42 57.46 110.79 65.32"/>
      <polygon points="59.12 90.32 49.4 96.61 45.25 92.93 54.97 86.64 59.12 90.32"/>
      <polygon points="60.74 98.52 51.02 104.8 46.87 101.12 56.59 94.83 60.74 98.52"/>
      <polygon points="73.14 95.54 82.99 101.7 78.93 105.43 69.07 99.27 73.14 95.54"/>
      <polygon points="75.09 86.96 85 93.07 80.97 96.82 71.06 90.71 75.09 86.96"/>
      <path class="cls-3" d="M63.69,82.88c-.61.43-1.34.75-2.17.97h-.03l-23.29-16.52c.26-.52.67-1,1.21-1.4l24.28,16.95Z"/>
      <path class="cls-2" d="M61.48,83.86c-4.28,1.09-11.12-.68-16.71-4.57-5.72-3.98-8.31-8.91-6.58-11.95l23.29,16.52Z"/>
      <path class="cls-2" d="M68.64,83.72c4.28,1.09,11.12-.68,16.71-4.57,5.72-3.98,8.31-8.91,6.58-11.95l-23.29,16.52Z"/>
      <polyline class="cls-3" points="38.01 98.07 34 56.24 18.64 65.37"/>
      <polygon class="cls-3" points="43.16 30.12 87.37 30.21 87.26 63.7 43.05 63.61 43.16 30.12"/>
      <ellipse class="cls-3" cx="65.21" cy="46.91" rx="11.05" ry="8.37"/>
      <polygon class="cls-3" points="62.42 54.23 69.33 54.25 69.31 58.43 62.41 58.42 62.42 54.23"/>
      <text/>
    </g>
  </g>
</svg>