<?xml version="1.0" encoding="UTF-8"?>
<svg xmlns="http://www.w3.org/2000/svg" version="1.1" viewBox="0 0 128 128">
  <defs>
    <style>
      .cls-1 {
        fill: #010102;
      }

      .cls-2 {
        fill: #1b1bdb;
      }

      .cls-3 {
        fill: red;
      }

      .cls-4 {
        fill: #3939ff;
      }

      .cls-5 {
        fill: #ededed;
      }

      .cls-6 {
        fill: #3b61ff;
      }
    </style>
  </defs>
  <!-- Generator: Adobe Illustrator 28.6.0, SVG Export Plug-In . SVG Version: 1.2.0 Build 709)  -->
  <g>
    <g id="Lager_1">
      <rect x="-.61" y="-2.51" width="129.17" height="130.51"/>
      <text/>
      <polygon class="cls-2" points="75.01 96.38 49.69 96.38 34.61 49.78 89.89 49.78 75.01 96.38"/>
      <path class="cls-4" d="M83.58,49.72l-21.33,19.48-2.3-2.1c.55-.19,1.04-.47,1.45-.84l-16.16-14.55c-.36.35-.64.76-.81,1.2l-3.57-3.26h.13c.04-23.54,9.55-42.61,21.26-42.61s21.24,19.09,21.26,42.66h.06Z"/>
      <polyline class="cls-4" points="80.09 80.27 81.86 44.45 92.75 51.19"/>
      <polygon points="58.36 72.65 51.89 78.04 49.13 74.88 55.6 69.49 58.36 72.65"/>
      <polygon points="59.26 81.5 52.79 86.89 50.03 83.73 56.5 78.34 59.26 81.5"/>
      <polygon points="67.69 77.48 74.25 82.77 71.54 85.97 64.98 80.69 67.69 77.48"/>
      <polygon points="68.99 69.76 75.59 75.01 72.9 78.23 66.31 72.98 68.99 69.76"/>
      <g>
        <polygon class="cls-6" points="62.41 5.11 56.89 6.38 56.89 16.39 67.94 16.39 67.94 6.38 62.41 5.11"/>
        <rect class="cls-1" x="58.35" y="9.64" width="7.96" height="5.8"/>
      </g>
      <path class="cls-4" d="M61.4,66.27c-.4.37-.89.64-1.45.84h-.02l-15.5-14.18c.17-.45.45-.85.81-1.2l16.16,14.55Z"/>
      <path class="cls-3" d="M59.93,67.1c-2.85.93-7.4-.58-11.12-3.92-3.81-3.42-5.53-7.65-4.38-10.25l15.5,14.18Z"/>
      <path class="cls-3" d="M64.7,66.98c2.85.93,7.4-.58,11.12-3.92,3.81-3.42,5.53-7.65,4.38-10.25l-15.5,14.18Z"/>
      <polyline class="cls-4" points="44.31 79.3 41.64 43.4 31.42 51.24"/>
      <rect class="cls-4" x="47.7" y="21.01" width="29.43" height="28.75" transform="translate(124.74 70.94) rotate(-179.85)"/>
      <path class="cls-4" d="M55.06,35.37c.01-3.97,3.31-7.18,7.38-7.17s7.35,3.24,7.34,7.21c-.01,3.97-3.31,7.18-7.38,7.17"/>
      <rect class="cls-4" x="60.55" y="41.68" width="4.6" height="3.59" transform="translate(125.59 87.11) rotate(-179.85)"/>
      <g>
        <path class="cls-5" d="M27.15,87.27l-14.77,11.17-2.82-3.55,14.77-11.17-3.68-4.63,3.38-2.55,10.18,12.82-3.38,2.55-3.68-4.63Z"/>
        <path class="cls-5" d="M40.67,93.03l4.07,2.09-10.66,19.85-4.07-2.09,10.66-19.85Z"/>
        <path class="cls-5" d="M61.85,102.93l-.95,18.22-4.59-.23.95-18.22-5.99-.3.22-4.17,16.57.84-.22,4.17-5.99-.3Z"/>
        <path class="cls-5" d="M97.38,106.28c1.26,2.31.49,4.75-1.87,5.98l-6.48,3.36c-2.37,1.23-4.87.48-6.13-1.84l-8.72-16.01,4.06-2.1,8.3,15.24c.33.6.85.76,1.47.44l4.45-2.31c.62-.32.78-.83.45-1.43l-8.3-15.24,4.06-2.1,8.72,16.02Z"/>
        <path class="cls-5" d="M104.44,77.7c-.61-.33-1.13-.19-1.48.41l-2.24,3.92c-.34.6-.2,1.11.42,1.44l1.89,1.03c.61.34.99.12,1.48-.41l4.01-4.45c1.69-1.86,4.03-2.94,6.25-1.72l3.62,1.98c2.34,1.28,3.05,3.74,1.74,6.02l-3.49,6.09c-1.31,2.28-3.83,2.98-6.17,1.7l-2.56-1.4,2.18-3.81,1.78.98c.61.33,1.14.19,1.48-.41l2.43-4.24c.34-.6.2-1.11-.42-1.44l-2.11-1.16c-.61-.33-.99-.12-1.48.41l-4.01,4.45c-1.69,1.86-4.03,2.94-6.25,1.72l-3.4-1.86c-2.34-1.28-3.05-3.74-1.74-6.02l3.3-5.76c1.31-2.29,3.83-2.98,6.17-1.7l2.34,1.28-2.18,3.81-1.56-.85Z"/>
      </g>
    </g>
  </g>
</svg>